<?xml version="1.0" encoding="UTF-8"?>
<!-- Generated by Pixelmator Pro 2.4.3 -->
<svg width="800" height="800" viewBox="0 0 800 800" xmlns="http://www.w3.org/2000/svg" xmlns:xlink="http://www.w3.org/1999/xlink">
    <path id="path1" fill="#ffffff" fill-rule="evenodd" stroke="none" d="M 228.841904 317.40094 L 276.942566 317.40094 C 288.84082 317.40094 298.09082 314.06369 304.692932 307.389069 C 311.294983 300.714417 314.596008 291.21048 314.596008 278.876892 L 314.596008 232.517456 C 314.596008 220.328979 311.294983 210.861328 304.692932 204.114136 C 298.09082 197.367004 288.84082 193.993469 276.942566 193.993469 L 228.841904 193.993469 C 216.943665 193.993469 207.693634 197.367004 201.091553 204.114136 C 194.489456 210.861328 191.188477 220.328979 191.188477 232.517456 L 191.188477 278.876892 C 191.188477 291.21048 194.489456 300.714417 201.091553 307.389069 C 207.693634 314.06369 216.943665 317.40094 228.841904 317.40094 Z M 232.977264 287.582886 C 229.05954 287.582886 226.121292 286.5672 224.162445 284.535828 C 222.203568 282.504333 221.224167 279.384766 221.224167 275.17688 L 221.224167 236.217468 C 221.224167 232.154663 222.203568 229.107605 224.162445 227.076233 C 226.121292 225.0448 229.05954 224.029114 232.977264 224.029114 L 272.80719 224.029114 C 276.579803 224.029114 279.518066 225.0448 281.622009 227.076233 C 283.725983 229.107605 284.777924 232.154663 284.777924 236.217468 L 284.777924 275.17688 C 284.777924 279.384766 283.725983 282.504333 281.622009 284.535828 C 279.518066 286.5672 276.579803 287.582886 272.80719 287.582886 Z M 380.326263 317.40094 L 428.644562 317.40094 C 440.542816 317.40094 449.756592 314.06369 456.286102 307.389069 C 462.815613 300.714417 466.080353 291.21048 466.080353 278.876892 L 466.080353 232.517456 C 466.080353 220.328979 462.815613 210.861328 456.286102 204.114136 C 449.756592 197.367004 440.542816 193.993469 428.644562 193.993469 L 380.326263 193.993469 C 368.428009 193.993469 359.214264 197.367004 352.684753 204.114136 C 346.155212 210.861328 342.890472 220.328979 342.890472 232.517456 L 342.890472 278.876892 C 342.890472 291.21048 346.155212 300.714417 352.684753 307.389069 C 359.214264 314.06369 368.428009 317.40094 380.326263 317.40094 Z M 384.461639 287.582886 C 380.543884 287.582886 377.605652 286.5672 375.64682 284.535828 C 373.687927 282.504333 372.708527 279.384766 372.708527 275.17688 L 372.708527 236.217468 C 372.708527 232.154663 373.687927 229.107605 375.64682 227.076233 C 377.605652 225.0448 380.543884 224.029114 384.461639 224.029114 L 424.509186 224.029114 C 428.28183 224.029114 431.183807 225.0448 433.21521 227.076233 C 435.246613 229.107605 436.262299 232.154663 436.262299 236.217468 L 436.262299 275.17688 C 436.262299 279.384766 435.246613 282.504333 433.21521 284.535828 C 431.183807 286.5672 428.28183 287.582886 424.509186 287.582886 Z M 532.245972 317.40094 L 580.346558 317.40094 C 592.244812 317.40094 601.494812 314.06369 608.096924 307.389069 C 614.699036 300.714417 618 291.21048 618 278.876892 L 618 232.517456 C 618 220.328979 614.699036 210.861328 608.096924 204.114136 C 601.494812 197.367004 592.244812 193.993469 580.346558 193.993469 L 532.245972 193.993469 C 520.347656 193.993469 511.097656 197.367004 504.495575 204.114136 C 497.893494 210.861328 494.592468 220.328979 494.592468 232.517456 L 494.592468 278.876892 C 494.592468 291.21048 497.893494 300.714417 504.495575 307.389069 C 511.097656 314.06369 520.347656 317.40094 532.245972 317.40094 Z M 536.381287 287.582886 C 532.463562 287.582886 529.489014 286.5672 527.457642 284.535828 C 525.426208 282.504333 524.410522 279.384766 524.410522 275.17688 L 524.410522 236.217468 C 524.410522 232.154663 525.426208 229.107605 527.457642 227.076233 C 529.489014 225.0448 532.463562 224.029114 536.381287 224.029114 L 576.211182 224.029114 C 579.983826 224.029114 582.885803 225.0448 584.917236 227.076233 C 586.948669 229.107605 587.964294 232.154663 587.964294 236.217468 L 587.964294 275.17688 C 587.964294 279.384766 586.948669 282.504333 584.917236 284.535828 C 582.885803 286.5672 579.983826 287.582886 576.211182 287.582886 Z M 228.841904 464.749939 L 276.942566 464.749939 C 288.84082 464.749939 298.09082 461.412689 304.692932 454.738037 C 311.294983 448.063416 314.596008 438.632019 314.596008 426.443573 L 314.596008 379.866455 C 314.596008 367.532898 311.294983 358.028961 304.692932 351.35434 C 298.09082 344.679718 288.84082 341.342438 276.942566 341.342438 L 228.841904 341.342438 C 216.943665 341.342438 207.693634 344.679718 201.091553 351.35434 C 194.489456 358.028961 191.188477 367.532898 191.188477 379.866455 L 191.188477 426.443573 C 191.188477 438.632019 194.489456 448.063416 201.091553 454.738037 C 207.693634 461.412689 216.943665 464.749939 228.841904 464.749939 Z M 232.977264 434.931915 C 229.05954 434.931915 226.121292 433.879944 224.162445 431.776001 C 222.203568 429.672028 221.224167 426.588684 221.224167 422.525848 L 221.224167 383.348877 C 221.224167 379.431152 222.203568 376.42038 224.162445 374.316406 C 226.121292 372.212463 229.05954 371.160492 232.977264 371.160492 L 272.80719 371.160492 C 276.579803 371.160492 279.518066 372.212463 281.622009 374.316406 C 283.725983 376.42038 284.777924 379.431152 284.777924 383.348877 L 284.777924 422.525848 C 284.777924 426.588684 283.725983 429.672028 281.622009 431.776001 C 279.518066 433.879944 276.579803 434.931915 272.80719 434.931915 Z M 380.326263 464.749939 L 428.644562 464.749939 C 440.542816 464.749939 449.756592 461.412689 456.286102 454.738037 C 462.815613 448.063416 466.080353 438.632019 466.080353 426.443573 L 466.080353 379.866455 C 466.080353 367.532898 462.815613 358.028961 456.286102 351.35434 C 449.756592 344.679718 440.542816 341.342438 428.644562 341.342438 L 380.326263 341.342438 C 368.428009 341.342438 359.214264 344.679718 352.684753 351.35434 C 346.155212 358.028961 342.890472 367.532898 342.890472 379.866455 L 342.890472 426.443573 C 342.890472 438.632019 346.155212 448.063416 352.684753 454.738037 C 359.214264 461.412689 368.428009 464.749939 380.326263 464.749939 Z M 384.461639 434.931915 C 380.543884 434.931915 377.605652 433.879944 375.64682 431.776001 C 373.687927 429.672028 372.708527 426.588684 372.708527 422.525848 L 372.708527 383.348877 C 372.708527 379.431152 373.687927 376.42038 375.64682 374.316406 C 377.605652 372.212463 380.543884 371.160492 384.461639 371.160492 L 424.509186 371.160492 C 428.28183 371.160492 431.183807 372.212463 433.21521 374.316406 C 435.246613 376.42038 436.262299 379.431152 436.262299 383.348877 L 436.262299 422.525848 C 436.262299 426.588684 435.246613 429.672028 433.21521 431.776001 C 431.183807 433.879944 428.28183 434.931915 424.509186 434.931915 Z M 532.245972 465.402893 L 580.346558 465.402893 C 592.244812 465.402893 601.494812 462.029358 608.096924 455.282196 C 614.699036 448.535004 618 439.067322 618 426.878876 L 618 380.519409 C 618 368.185852 614.699036 358.64563 608.096924 351.898438 C 601.494812 345.151276 592.244812 341.77774 580.346558 341.77774 L 532.245972 341.77774 C 520.347656 341.77774 511.097656 345.151276 504.495575 351.898438 C 497.893494 358.64563 494.592468 368.185852 494.592468 380.519409 L 494.592468 426.878876 C 494.592468 439.067322 497.893494 448.535004 504.495575 455.282196 C 511.097656 462.029358 520.347656 465.402893 532.245972 465.402893 Z M 228.841904 612.098938 L 276.942566 612.098938 C 288.84082 612.098938 298.09082 608.761719 304.692932 602.087036 C 311.294983 595.412415 314.596008 585.908447 314.596008 573.574951 L 314.596008 527.215454 C 314.596008 514.881958 311.294983 505.377991 304.692932 498.703339 C 298.09082 492.028687 288.84082 488.691437 276.942566 488.691437 L 228.841904 488.691437 C 216.943665 488.691437 207.693634 492.028687 201.091553 498.703339 C 194.489456 505.377991 191.188477 514.881958 191.188477 527.215454 L 191.188477 573.574951 C 191.188477 585.908447 194.489456 595.412415 201.091553 602.087036 C 207.693634 608.761719 216.943665 612.098938 228.841904 612.098938 Z M 232.977264 582.063293 C 229.05954 582.063293 226.121292 581.047607 224.162445 579.016174 C 222.203568 576.984741 221.224167 573.937683 221.224167 569.874878 L 221.224167 530.915527 C 221.224167 526.707642 222.203568 523.588013 224.162445 521.55658 C 226.121292 519.525146 229.05954 518.50946 232.977264 518.50946 L 272.80719 518.50946 C 276.579803 518.50946 279.518066 519.525146 281.622009 521.55658 C 283.725983 523.588013 284.777924 526.707642 284.777924 530.915527 L 284.777924 569.874878 C 284.777924 573.937683 283.725983 576.984741 281.622009 579.016174 C 279.518066 581.047607 276.579803 582.063293 272.80719 582.063293 Z M 380.326263 612.098938 L 428.644562 612.098938 C 440.542816 612.098938 449.756592 608.761719 456.286102 602.087036 C 462.815613 595.412415 466.080353 585.908447 466.080353 573.574951 L 466.080353 527.215454 C 466.080353 514.881958 462.815613 505.377991 456.286102 498.703339 C 449.756592 492.028687 440.542816 488.691437 428.644562 488.691437 L 380.326263 488.691437 C 368.428009 488.691437 359.214264 492.028687 352.684753 498.703339 C 346.155212 505.377991 342.890472 514.881958 342.890472 527.215454 L 342.890472 573.574951 C 342.890472 585.908447 346.155212 595.412415 352.684753 602.087036 C 359.214264 608.761719 368.428009 612.098938 380.326263 612.098938 Z M 384.461639 582.063293 C 380.543884 582.063293 377.605652 581.047607 375.64682 579.016174 C 373.687927 576.984741 372.708527 573.937683 372.708527 569.874878 L 372.708527 530.915527 C 372.708527 526.707642 373.687927 523.588013 375.64682 521.55658 C 377.605652 519.525146 380.543884 518.50946 384.461639 518.50946 L 424.509186 518.50946 C 428.28183 518.50946 431.183807 519.525146 433.21521 521.55658 C 435.246613 523.588013 436.262299 526.707642 436.262299 530.915527 L 436.262299 569.874878 C 436.262299 573.937683 435.246613 576.984741 433.21521 579.016174 C 431.183807 581.047607 428.28183 582.063293 424.509186 582.063293 Z M 532.245972 612.098938 L 580.346558 612.098938 C 592.244812 612.098938 601.494812 608.761719 608.096924 602.087036 C 614.699036 595.412415 618 585.908447 618 573.574951 L 618 527.215454 C 618 514.881958 614.699036 505.377991 608.096924 498.703339 C 601.494812 492.028687 592.244812 488.691437 580.346558 488.691437 L 532.245972 488.691437 C 520.347656 488.691437 511.097656 492.028687 504.495575 498.703339 C 497.893494 505.377991 494.592468 514.881958 494.592468 527.215454 L 494.592468 573.574951 C 494.592468 585.908447 497.893494 595.412415 504.495575 602.087036 C 511.097656 608.761719 520.347656 612.098938 532.245972 612.098938 Z M 536.381287 582.063293 C 532.463562 582.063293 529.489014 581.047607 527.457642 579.016174 C 525.426208 576.984741 524.410522 573.937683 524.410522 569.874878 L 524.410522 530.915527 C 524.410522 526.707642 525.426208 523.588013 527.457642 521.55658 C 529.489014 519.525146 532.463562 518.50946 536.381287 518.50946 L 576.211182 518.50946 C 579.983826 518.50946 582.885803 519.525146 584.917236 521.55658 C 586.948669 523.588013 587.964294 526.707642 587.964294 530.915527 L 587.964294 569.874878 C 587.964294 573.937683 586.948669 576.984741 584.917236 579.016174 C 582.885803 581.047607 579.983826 582.063293 576.211182 582.063293 Z"/>
    <path id="path2" fill="#ffffff" fill-rule="evenodd" stroke="none" d="M 169.927444 753.95166 L 636.639221 753.95166 C 676.910767 753.95166 707.114014 744.012146 727.249756 724.132874 C 747.385559 704.253601 757.453308 674.43512 757.453308 634.676575 L 757.453308 164.88678 C 757.453308 125.128235 747.385559 95.309753 727.249756 75.430481 C 707.114014 55.551208 676.910767 45.611694 636.639221 45.611694 L 169.927444 45.611694 C 129.655884 45.611694 99.45266 55.551208 79.316879 75.430481 C 59.181095 95.309753 49.113354 125.128235 49.113354 164.88678 L 49.113354 634.676575 C 49.113354 674.43512 59.181095 704.253601 79.316879 724.132874 C 99.45266 744.012146 129.655884 753.95166 169.927444 753.95166 Z M 170.69696 692.005554 C 151.458954 692.005554 136.710037 686.939636 126.44976 676.807617 C 116.189491 666.675598 111.059433 651.606079 111.059433 631.598511 L 111.059433 167.964844 C 111.059433 147.957275 116.189491 132.887756 126.44976 122.755737 C 136.710037 112.623718 151.458954 107.5578 170.69696 107.5578 L 635.86969 107.5578 C 654.851196 107.5578 669.536011 112.623718 679.9245 122.755737 C 690.313049 132.887756 695.507202 147.957275 695.507202 167.964844 L 695.507202 631.598511 C 695.507202 651.606079 690.313049 666.675598 679.9245 676.807617 C 669.536011 686.939636 654.851196 692.005554 635.86969 692.005554 Z"/>
</svg>
