<?xml version="1.0" encoding="UTF-8"?>
<!-- Generated by Pixelmator Pro 2.4.3 -->
<svg width="800" height="800" viewBox="0 0 800 800" xmlns="http://www.w3.org/2000/svg" xmlns:xlink="http://www.w3.org/1999/xlink">
    <path id="path1" fill="#ffffff" fill-rule="evenodd" stroke="none" d="M 204.86348 305.716095 L 259.526642 305.716095 C 273.048218 305.716095 283.560242 301.923523 291.06308 294.338257 C 298.565887 286.752991 302.317261 275.952393 302.317261 261.936096 L 302.317261 209.251709 C 302.317261 195.40033 298.565887 184.64093 291.06308 176.973206 C 283.560242 169.305542 273.048218 165.471741 259.526642 165.471741 L 204.86348 165.471741 C 191.341919 165.471741 180.82988 169.305542 173.327057 176.973206 C 165.824219 184.64093 162.072876 195.40033 162.072876 209.251709 L 162.072876 261.936096 C 162.072876 275.952393 165.824219 286.752991 173.327057 294.338257 C 180.82988 301.923523 191.341919 305.716095 204.86348 305.716095 Z M 209.563034 271.829895 C 205.110809 271.829895 201.771683 270.675598 199.545578 268.367065 C 197.319458 266.058472 196.206421 262.513245 196.206421 257.731262 L 196.206421 213.456543 C 196.206421 208.839417 197.319458 205.376648 199.545578 203.068115 C 201.771683 200.759521 205.110809 199.605286 209.563034 199.605286 L 254.827087 199.605286 C 259.11441 199.605286 262.453552 200.759521 264.844543 203.068115 C 267.235565 205.376648 268.43103 208.839417 268.43103 213.456543 L 268.43103 257.731262 C 268.43103 262.513245 267.235565 266.058472 264.844543 268.367065 C 262.453552 270.675598 259.11441 271.829895 254.827087 271.829895 Z M 377.01532 305.716095 L 431.925812 305.716095 C 445.447388 305.716095 455.918213 301.923523 463.338593 294.338257 C 470.758942 286.752991 474.469086 275.952393 474.469086 261.936096 L 474.469086 209.251709 C 474.469086 195.40033 470.758942 184.64093 463.338593 176.973206 C 455.918213 169.305542 445.447388 165.471741 431.925812 165.471741 L 377.01532 165.471741 C 363.493744 165.471741 353.022919 169.305542 345.60257 176.973206 C 338.18219 184.64093 334.472046 195.40033 334.472046 209.251709 L 334.472046 261.936096 C 334.472046 275.952393 338.18219 286.752991 345.60257 294.338257 C 353.022919 301.923523 363.493744 305.716095 377.01532 305.716095 Z M 381.714874 271.829895 C 377.262634 271.829895 373.923523 270.675598 371.697418 268.367065 C 369.471283 266.058472 368.358246 262.513245 368.358246 257.731262 L 368.358246 213.456543 C 368.358246 208.839417 369.471283 205.376648 371.697418 203.068115 C 373.923523 200.759521 377.262634 199.605286 381.714874 199.605286 L 427.226257 199.605286 C 431.513611 199.605286 434.811493 200.759521 437.120056 203.068115 C 439.428619 205.376648 440.582886 208.839417 440.582886 213.456543 L 440.582886 257.731262 C 440.582886 262.513245 439.428619 266.058472 437.120056 268.367065 C 434.811493 270.675598 431.513611 271.829895 427.226257 271.829895 Z M 549.661865 305.716095 L 604.325012 305.716095 C 617.846558 305.716095 628.358582 301.923523 635.86145 294.338257 C 643.364258 286.752991 647.115601 275.952393 647.115601 261.936096 L 647.115601 209.251709 C 647.115601 195.40033 643.364258 184.64093 635.86145 176.973206 C 628.358582 169.305542 617.846558 165.471741 604.325012 165.471741 L 549.661865 165.471741 C 536.140259 165.471741 525.628235 169.305542 518.125427 176.973206 C 510.622589 184.64093 506.871216 195.40033 506.871216 209.251709 L 506.871216 261.936096 C 506.871216 275.952393 510.622589 286.752991 518.125427 294.338257 C 525.628235 301.923523 536.140259 305.716095 549.661865 305.716095 Z M 554.361389 271.829895 C 549.90918 271.829895 546.528809 270.675598 544.220276 268.367065 C 541.911682 266.058472 540.757446 262.513245 540.757446 257.731262 L 540.757446 213.456543 C 540.757446 208.839417 541.911682 205.376648 544.220276 203.068115 C 546.528809 200.759521 549.90918 199.605286 554.361389 199.605286 L 599.625427 199.605286 C 603.912781 199.605286 607.210693 200.759521 609.519226 203.068115 C 611.82782 205.376648 612.982056 208.839417 612.982056 213.456543 L 612.982056 257.731262 C 612.982056 262.513245 611.82782 266.058472 609.519226 268.367065 C 607.210693 270.675598 603.912781 271.829895 599.625427 271.829895 Z M 204.86348 473.168365 L 259.526642 473.168365 C 273.048218 473.168365 283.560242 469.375793 291.06308 461.790527 C 298.565887 454.205261 302.317261 443.487091 302.317261 429.635742 L 302.317261 376.703979 C 302.317261 362.687714 298.565887 351.887115 291.06308 344.301849 C 283.560242 336.716583 273.048218 332.924011 259.526642 332.924011 L 204.86348 332.924011 C 191.341919 332.924011 180.82988 336.716583 173.327057 344.301849 C 165.824219 351.887115 162.072876 362.687714 162.072876 376.703979 L 162.072876 429.635742 C 162.072876 443.487091 165.824219 454.205261 173.327057 461.790527 C 180.82988 469.375793 191.341919 473.168365 204.86348 473.168365 Z M 209.563034 439.282166 C 205.110809 439.282166 201.771683 438.08667 199.545578 435.695679 C 197.319458 433.304657 196.206421 429.800659 196.206421 425.183533 L 196.206421 380.661499 C 196.206421 376.20929 197.319458 372.78772 199.545578 370.396698 C 201.771683 368.005707 205.110809 366.810211 209.563034 366.810211 L 254.827087 366.810211 C 259.11441 366.810211 262.453552 368.005707 264.844543 370.396698 C 267.235565 372.78772 268.43103 376.20929 268.43103 380.661499 L 268.43103 425.183533 C 268.43103 429.800659 267.235565 433.304657 264.844543 435.695679 C 262.453552 438.08667 259.11441 439.282166 254.827087 439.282166 Z M 377.01532 473.168365 L 431.925812 473.168365 C 445.447388 473.168365 455.918213 469.375793 463.338593 461.790527 C 470.758942 454.205261 474.469086 443.487091 474.469086 429.635742 L 474.469086 376.703979 C 474.469086 362.687714 470.758942 351.887115 463.338593 344.301849 C 455.918213 336.716583 445.447388 332.924011 431.925812 332.924011 L 377.01532 332.924011 C 363.493744 332.924011 353.022919 336.716583 345.60257 344.301849 C 338.18219 351.887115 334.472046 362.687714 334.472046 376.703979 L 334.472046 429.635742 C 334.472046 443.487091 338.18219 454.205261 345.60257 461.790527 C 353.022919 469.375793 363.493744 473.168365 377.01532 473.168365 Z M 381.714874 439.282166 C 377.262634 439.282166 373.923523 438.08667 371.697418 435.695679 C 369.471283 433.304657 368.358246 429.800659 368.358246 425.183533 L 368.358246 380.661499 C 368.358246 376.20929 369.471283 372.78772 371.697418 370.396698 C 373.923523 368.005707 377.262634 366.810211 381.714874 366.810211 L 427.226257 366.810211 C 431.513611 366.810211 434.811493 368.005707 437.120056 370.396698 C 439.428619 372.78772 440.582886 376.20929 440.582886 380.661499 L 440.582886 425.183533 C 440.582886 429.800659 439.428619 433.304657 437.120056 435.695679 C 434.811493 438.08667 431.513611 439.282166 427.226257 439.282166 Z M 549.661865 473.9104 L 604.325012 473.9104 C 617.846558 473.9104 628.358582 470.076599 635.86145 462.408905 C 643.364258 454.74118 647.115601 443.981781 647.115601 430.130432 L 647.115601 377.446014 C 647.115601 363.429749 643.364258 352.587921 635.86145 344.920197 C 628.358582 337.252502 617.846558 333.418701 604.325012 333.418701 L 549.661865 333.418701 C 536.140259 333.418701 525.628235 337.252502 518.125427 344.920197 C 510.622589 352.587921 506.871216 363.429749 506.871216 377.446014 L 506.871216 430.130432 C 506.871216 443.981781 510.622589 454.74118 518.125427 462.408905 C 525.628235 470.076599 536.140259 473.9104 549.661865 473.9104 Z M 204.86348 640.620667 L 259.526642 640.620667 C 273.048218 640.620667 283.560242 636.828125 291.06308 629.242798 C 298.565887 621.657532 302.317261 610.856934 302.317261 596.840698 L 302.317261 544.15625 C 302.317261 530.140015 298.565887 519.339417 291.06308 511.75415 C 283.560242 504.168854 273.048218 500.376282 259.526642 500.376282 L 204.86348 500.376282 C 191.341919 500.376282 180.82988 504.168854 173.327057 511.75415 C 165.824219 519.339417 162.072876 530.140015 162.072876 544.15625 L 162.072876 596.840698 C 162.072876 610.856934 165.824219 621.657532 173.327057 629.242798 C 180.82988 636.828125 191.341919 640.620667 204.86348 640.620667 Z M 209.563034 606.487122 C 205.110809 606.487122 201.771683 605.332886 199.545578 603.024292 C 197.319458 600.715698 196.206421 597.25293 196.206421 592.635803 L 196.206421 548.361145 C 196.206421 543.579102 197.319458 540.033875 199.545578 537.725342 C 201.771683 535.416748 205.110809 534.262451 209.563034 534.262451 L 254.827087 534.262451 C 259.11441 534.262451 262.453552 535.416748 264.844543 537.725342 C 267.235565 540.033875 268.43103 543.579102 268.43103 548.361145 L 268.43103 592.635803 C 268.43103 597.25293 267.235565 600.715698 264.844543 603.024292 C 262.453552 605.332886 259.11441 606.487122 254.827087 606.487122 Z M 377.01532 640.620667 L 431.925812 640.620667 C 445.447388 640.620667 455.918213 636.828125 463.338593 629.242798 C 470.758942 621.657532 474.469086 610.856934 474.469086 596.840698 L 474.469086 544.15625 C 474.469086 530.140015 470.758942 519.339417 463.338593 511.75415 C 455.918213 504.168854 445.447388 500.376282 431.925812 500.376282 L 377.01532 500.376282 C 363.493744 500.376282 353.022919 504.168854 345.60257 511.75415 C 338.18219 519.339417 334.472046 530.140015 334.472046 544.15625 L 334.472046 596.840698 C 334.472046 610.856934 338.18219 621.657532 345.60257 629.242798 C 353.022919 636.828125 363.493744 640.620667 377.01532 640.620667 Z M 381.714874 606.487122 C 377.262634 606.487122 373.923523 605.332886 371.697418 603.024292 C 369.471283 600.715698 368.358246 597.25293 368.358246 592.635803 L 368.358246 548.361145 C 368.358246 543.579102 369.471283 540.033875 371.697418 537.725342 C 373.923523 535.416748 377.262634 534.262451 381.714874 534.262451 L 427.226257 534.262451 C 431.513611 534.262451 434.811493 535.416748 437.120056 537.725342 C 439.428619 540.033875 440.582886 543.579102 440.582886 548.361145 L 440.582886 592.635803 C 440.582886 597.25293 439.428619 600.715698 437.120056 603.024292 C 434.811493 605.332886 431.513611 606.487122 427.226257 606.487122 Z M 549.661865 640.620667 L 604.325012 640.620667 C 617.846558 640.620667 628.358582 636.828125 635.86145 629.242798 C 643.364258 621.657532 647.115601 610.856934 647.115601 596.840698 L 647.115601 544.15625 C 647.115601 530.140015 643.364258 519.339417 635.86145 511.75415 C 628.358582 504.168854 617.846558 500.376282 604.325012 500.376282 L 549.661865 500.376282 C 536.140259 500.376282 525.628235 504.168854 518.125427 511.75415 C 510.622589 519.339417 506.871216 530.140015 506.871216 544.15625 L 506.871216 596.840698 C 506.871216 610.856934 510.622589 621.657532 518.125427 629.242798 C 525.628235 636.828125 536.140259 640.620667 549.661865 640.620667 Z M 554.361389 606.487122 C 549.90918 606.487122 546.528809 605.332886 544.220276 603.024292 C 541.911682 600.715698 540.757446 597.25293 540.757446 592.635803 L 540.757446 548.361145 C 540.757446 543.579102 541.911682 540.033875 544.220276 537.725342 C 546.528809 535.416748 549.90918 534.262451 554.361389 534.262451 L 599.625427 534.262451 C 603.912781 534.262451 607.210693 535.416748 609.519226 537.725342 C 611.82782 540.033875 612.982056 543.579102 612.982056 548.361145 L 612.982056 592.635803 C 612.982056 597.25293 611.82782 600.715698 609.519226 603.024292 C 607.210693 605.332886 603.912781 606.487122 599.625427 606.487122 Z"/>
    <path id="path2" fill="#ffffff" fill-rule="evenodd" stroke="none" d="M 169.927444 753.95166 L 636.639221 753.95166 C 676.910767 753.95166 707.114014 744.012146 727.249756 724.132874 C 747.385559 704.253601 757.453308 674.43512 757.453308 634.676575 L 757.453308 164.88678 C 757.453308 125.128235 747.385559 95.309753 727.249756 75.430481 C 707.114014 55.551208 676.910767 45.611694 636.639221 45.611694 L 169.927444 45.611694 C 129.655884 45.611694 99.45266 55.551208 79.316879 75.430481 C 59.181095 95.309753 49.113354 125.128235 49.113354 164.88678 L 49.113354 634.676575 C 49.113354 674.43512 59.181095 704.253601 79.316879 724.132874 C 99.45266 744.012146 129.655884 753.95166 169.927444 753.95166 Z M 170.69696 692.005554 C 151.458954 692.005554 136.710037 686.939636 126.44976 676.807617 C 116.189491 666.675598 111.059433 651.606079 111.059433 631.598511 L 111.059433 167.964844 C 111.059433 147.957275 116.189491 132.887756 126.44976 122.755737 C 136.710037 112.623718 151.458954 107.5578 170.69696 107.5578 L 635.86969 107.5578 C 654.851196 107.5578 669.536011 112.623718 679.9245 122.755737 C 690.313049 132.887756 695.507202 147.957275 695.507202 167.964844 L 695.507202 631.598511 C 695.507202 651.606079 690.313049 666.675598 679.9245 676.807617 C 669.536011 686.939636 654.851196 692.005554 635.86969 692.005554 Z"/>
</svg>
